<svg xmlns="http://www.w3.org/2000/svg" viewBox="0 0 294.06 377.69"><defs><style>.cls-1{fill:#3a70b4;}</style></defs><g id="Layer_2" data-name="Layer 2"><g id="Layer_1-2" data-name="Layer 1"><path class="cls-1" d="M125,189.17c0-55.48.14-110.95-.1-166.43A22.39,22.39,0,0,1,147.62,0c11.3.17,22.29,8.13,22.29,22.73q.09,165.93,0,331.87c0,12-8.27,21.13-20.6,22.93-9.55,1.4-21.14-6.48-24-16.48a20.06,20.06,0,0,1-.35-5.44Q125,272.39,125,189.17Z"/><path class="cls-1" d="M294.06,354.63c.05,12.38-11.37,23.08-22.71,23-12.79-.11-22.44-9.92-22.44-23V250.66c0-34.81.3-69.63-.2-104.43-.13-9.25,8.78-18.33,16.41-21,8.19-2.93,18.46.84,24.07,7.84,3.59,4.46,4.77,9.18,4.76,14.73C293.86,216.71,293.72,285.67,294.06,354.63Z"/><path class="cls-1" d="M46,292.8q0,30.49,0,61c0,13.57-9.87,23.9-22.7,23.82C10.21,377.51,0,367,0,353.44Q0,292.72,0,232c0-16.16,12.53-27.12,28.25-24.17,8.06,1.52,17.87,10.22,17.78,22.5C45.86,251.15,46,272,46,292.8Z"/></g></g></svg>