<svg xmlns="http://www.w3.org/2000/svg" viewBox="0 0 436.75 436.76"><defs><style>.cls-1{fill:#3a70b4;}</style></defs><g id="Layer_2" data-name="Layer 2"><g id="Layer_1-2" data-name="Layer 1"><path class="cls-1" d="M233.93,319.81q0-38.22,0-76.44c0-24,16.44-40.49,40.39-40.5q61.2,0,122.4,0c23.31,0,40,16.62,40,39.89q0,76.94,0,153.87c0,23.21-16.78,40.06-39.9,40.09q-61.44.07-122.9,0c-23.21,0-39.91-16.79-40-40V319.81Zm31-.67q0,38.22,0,76.43c0,6.95,3.13,10.11,10,10.11q60.19,0,120.38,0c7.26,0,10.29-3.05,10.29-10.36q0-75.42,0-150.86c0-8.07-2.43-10.52-10.32-10.52H275.47c-8.25,0-10.5,2.31-10.51,10.77Z"/><path class="cls-1" d="M202.86,117q0,38.22,0,76.43c0,24-16.42,40.49-40.38,40.5q-61.18,0-122.38,0C16.81,233.9.05,217.22,0,194Q0,117.1,0,40.17C0,17.08,17,.06,40,0Q101.44,0,162.88,0c23.1,0,39.93,16.91,40,40Q202.91,78.54,202.86,117Zm-31-.06q0-37.73,0-75.46c0-7.62-2.6-10.35-10.07-10.35q-60.21,0-120.43,0c-7.22,0-10.21,3.08-10.21,10.44q0,75.47,0,150.92c0,8,2.47,10.39,10.46,10.39H161.5c8,0,10.32-2.41,10.32-10.47Q171.84,154.65,171.83,116.93Z"/><path class="cls-1" d="M101.91,265q30.48,0,61,0c23.14,0,40,16.83,40,40q.06,45.71,0,91.42c0,23.65-16.58,40.32-40.11,40.34q-61.18.07-122.39,0C16.74,436.7.05,420.07,0,396.57q0-45.46,0-90.92C0,281.65,16.82,265,41,265Q71.44,264.94,101.91,265Zm-.49,31.73H41.47c-7.94,0-10.35,2.37-10.36,10.38q0,44.22,0,88.43c0,7,3.09,10.17,10,10.18q60.45,0,120.91,0c6.65,0,9.81-3.18,9.82-9.82q.06-45,0-89.93c0-6.71-2.62-9.22-9.44-9.23Q131.91,296.67,101.42,296.69Z"/><path class="cls-1" d="M335.27,0Q366,0,396.72,0c23.23,0,40,16.74,40,40q.06,46,0,91.92c0,23-17,39.88-40.18,39.91q-61.2,0-122.4,0c-23.46,0-40.18-16.78-40.21-40.29q0-45.46,0-90.92C234,16.71,250.53.06,274.32,0Q304.8,0,335.27,0Zm0,140.09h60.46c7.36,0,9.94-2.43,10-9.76q.07-44.71,0-89.43c0-6.62-3.19-9.79-9.85-9.79q-60.45,0-120.91,0c-6.88,0-9.93,3.16-9.94,10.2q0,44.72,0,89.43c0,6.77,2.6,9.34,9.32,9.35Q304.78,140.13,335.25,140.11Z"/></g></g></svg>