<svg xmlns="http://www.w3.org/2000/svg" viewBox="0 0 497.81 498"><defs><style>.cls-1{fill:#3a70b4;}</style></defs><g id="Layer_2" data-name="Layer 2"><g id="Layer_1-2" data-name="Layer 1"><path class="cls-1" d="M390.06,0c4.85,2.41,10.12,3.93,14.26,7.74,6.89,6.32,10.53,14.14,10.55,23.35.11,60.67,0,121.35.13,182,0,3.54-1.09,4.71-4.63,4.49a121.25,121.25,0,0,0-12.79,0c-2.69.11-3.65-.95-3.53-3.53.13-2.82,0-5.65,0-8.48q0-85.51,0-171c0-10.27-3.4-13.63-13.85-13.63H34.6c-10.5,0-13.7,3.18-13.7,13.61q0,120.93,0,241.86c0,10.64,3.33,13.91,14.12,13.92,41.72,0,83.45.06,125.18-.1,4.68,0,6.74,1.14,6.26,6.1a85.91,85.91,0,0,0,0,11.46c.1,2.59-.91,3.55-3.48,3.48-4.65-.13-9.31.06-14-.07-3.1-.08-3.86,1.31-3.39,5.28a125.16,125.16,0,0,1,0,30.52c-.59,4.74,1.05,5.38,4.18,5.35,10.81-.08,21.62.1,32.42-.1,3.64-.07,4.8,1.13,4.47,4.94a60.86,60.86,0,0,0-.06,11.61c.34,3.31-.5,4.44-3.4,4.44q-37.9-.1-75.8,0c-2.79,0-4.22-.72-3.51-5a31.23,31.23,0,0,0,.06-10.78c-.73-4,.27-5.23,3.08-5.18,4.49.07,9-.17,13.46.07,3.37.18,4.26-1.16,4.21-4.34-.15-10.63-.24-21.28,0-31.91.11-4.05-1.23-5-5.08-5-29.09.14-58.18.1-87.27.07-15.65,0-27.22-8.94-31.52-24A33.41,33.41,0,0,1,0,277.81Q0,155.64,0,33.46C0,17,7.46,6.51,22.85,1.12h0A16.86,16.86,0,0,1,28.47,0Z"/><path class="cls-1" d="M497.81,461.84a319.29,319.29,0,0,1-32.41,33c-5,4.51-9.78,4.18-14.56-.58q-32.16-32-64.18-64.18c-5.19-5.22-4.88-10.9.65-16.59,6.28-6.46,6.6-5-.08-11.71-4.34-4.36-8.75-8.65-13-13.06-2-2.08-3.68-2.1-6-.29C345.78,406,320,413.8,291.88,411.68c-39.24-2.95-69.41-21.77-89.8-55.6-12-19.92-17.34-41.81-15.22-64.85,3.54-38.66,21.85-68.78,55.34-89A107.9,107.9,0,0,1,307,186.75c51.56,3.78,94.3,41.79,103,92.14,5.7,32.82-1.33,62.58-21.5,89.14-1.61,2.12-1.85,3.52.13,5.5,5.51,5.52,10.89,11.17,16.25,16.84,1.87,2,3.52,2.25,5.38.07.86-1,1.87-1.88,2.82-2.82,6.35-6.22,11.78-6.24,18,0q30.87,30.84,61.71,61.71c1.74,1.74,3.29,3.68,4.93,5.52ZM391.1,299.54c0-50.79-40.71-92-91.06-92.06-51.41-.07-92.52,40.63-92.55,91.63a91.43,91.43,0,0,0,91.6,92C350.2,391.1,391.06,350.46,391.1,299.54ZM472.16,458.4a21.72,21.72,0,0,0-1.83-2.47Q447.67,433.19,425,410.48c-1.75-1.76-3.18-2-5-.1q-4.64,4.86-9.51,9.49c-1.87,1.78-1.78,3.2,0,5q22.74,22.65,45.39,45.4c1.73,1.74,3.17,2.05,5,.13,3.09-3.25,6.33-6.34,9.47-9.54A21.93,21.93,0,0,0,472.16,458.4Z"/><path class="cls-1" d="M155.38,41.76c18.83-1.14,36,17.69,30.06,38.88-1.19,4.26-.62,7,2.59,10,8.45,7.94,16.66,16.15,24.84,24.39,1.42,1.44,2.48,1.71,4.3,1a28.63,28.63,0,0,1,21.82,0c2.08.87,3.4.24,4.83-1.2q13.35-13.44,26.79-26.78c1.48-1.47,1.73-2.78,1-4.85-4.74-13.81-1.27-25.64,9.79-34.84,10-8.35,21.55-8.77,33.22-3.65,13.31,5.83,20.61,23,16,36.92-5.12,15.39-20.56,25.11-35.31,21.27-6.18-1.6-10.08-.49-14.25,4.14-6.78,7.52-14.16,14.5-21.42,21.57a6.39,6.39,0,0,0-1.9,7.08c5.4,20-5.66,37.6-26.25,40.34a30.17,30.17,0,0,1-34-26.91c-.47-4.8-.5-9.7,1.27-14.28,1-2.66.22-4.28-1.63-6.09q-12.78-12.6-25.37-25.38c-1.81-1.83-3.26-2.56-6-1.5a28.53,28.53,0,0,1-19.52.35c-3.41-1.12-5.55-.22-7.9,2.17-11.43,11.59-23.06,23-34.45,34.63-2.42,2.46-4,2.78-6.3,0a81.31,81.31,0,0,0-8.46-8.45c-2.93-2.53-2.43-4.34.12-6.84,11.61-11.41,23-23,34.64-34.44,2.46-2.41,3-4.45,2-7.84A30.59,30.59,0,0,1,155.38,41.76Zm83,103.23a10.13,10.13,0,0,0-9.94-10.23c-5.93-.08-11,4.82-10.88,10.54a10.77,10.77,0,0,0,10.69,10.25A10.16,10.16,0,0,0,238.42,145ZM165.68,72.77A10.41,10.41,0,0,0,155.23,62C150.37,62,145,67.38,145,72.29a10.74,10.74,0,0,0,10.37,10.55C161.49,83,165.59,79,165.68,72.77ZM300.84,82.83a10.31,10.31,0,0,0,10.35-10c.06-5.49-4.95-10.76-10.3-10.84s-10.43,4.91-10.54,10.54A10.2,10.2,0,0,0,300.84,82.83Z"/><path class="cls-1" d="M77.57,269.44c-8.81.79-18.55-.61-26.49-8.4a32.07,32.07,0,0,1-9.33-18.75c-1.07-7-.35-13.93-.64-20.88-.12-2.67.9-4,3.76-3.91,4.65.13,9.3.14,14,0,2.84-.08,3.86,1.15,3.82,3.85-.07,5.48-.08,11,0,16.45.1,7,3.74,10.65,10.82,10.74,5.15.06,10.31.15,15.45,0,3.33-.11,4.94.87,4.75,4.49-.23,4.31-.15,8.64,0,13,.07,2.54-.84,3.62-3.46,3.52C86.52,269.34,82.86,269.44,77.57,269.44Z"/><path class="cls-1" d="M62.62,186.33c0,11,0,11-11,11-10.5,0-10.5,0-10.5-10.55,0-11,0-11.11,11-11C64.28,175.9,62.44,174.06,62.62,186.33Z"/><path class="cls-1" d="M362.63,301c-9.16,0-9.16,0-10.87-8.7-4.84-24.73-22.67-41-47.32-43-3-.24-4.15-1.24-4.05-4.21.15-4.31.19-8.64,0-12.94-.15-3.17,1.18-4,4.11-3.86,19.09,1,35.12,8.46,48.46,22.11C363.88,261.61,370,275,372.61,290.29,374.44,301.07,374.66,301,362.63,301Z"/></g></g></svg>