<svg xmlns="http://www.w3.org/2000/svg" viewBox="0 0 357.95 358.05"><defs><style>.cls-1{fill:#3a70b4;}</style></defs><g id="Layer_2" data-name="Layer 2"><g id="Layer_1-2" data-name="Layer 1"><path class="cls-1" d="M178.68,358.05c-44-.78-83.11-14.73-116.61-43.54C27.83,285.07,6.66,247.78,1.51,203.15-7,129.3,20.5,70.78,81.58,28.3a129.79,129.79,0,0,1,25-13.46c8.16-3.35,16.84-.34,20.28,7.15,3.55,7.71.48,16.22-7.79,20-17,7.79-32.41,17.83-45.48,31.13-24.21,24.63-39.11,54-42.67,88.56C25.67,212.76,42.26,255.81,80,290.26c23.92,21.82,52.54,34.09,85,36.81,48.76,4.09,89.89-12.12,123.56-47.31a140.55,140.55,0,0,0,27.18-41.58c3.88-9,12-12.73,20.15-9.23s11.35,12.06,7.48,20.92a177,177,0,0,1-27.14,44.06q-38.73,45.58-97,59.38A170.62,170.62,0,0,1,178.68,358.05Z"/><path class="cls-1" d="M164,96.53q0-40,0-79.95C164,5.51,169.47-.25,180.42,0,247.3,1.59,298.19,31.39,333.19,88c16.88,27.32,24.74,57.54,24.76,89.71,0,10.07-6.12,16.22-16.12,16.23H180.91c-11,0-16.95-5.94-16.95-17Q163.93,136.76,164,96.53ZM260.09,164c20.81,0,41.63-.1,62.44.09,4.05,0,4.84-1.44,4.33-5a152.25,152.25,0,0,0-15.21-48.26,148.6,148.6,0,0,0-59.7-62,146.43,146.43,0,0,0-52.1-17.66c-3.66-.53-6.06-.45-6,4.75q.33,61.7,0,123.39c0,3.76,1.06,4.79,4.78,4.76C219.12,163.86,239.6,164,260.09,164Z"/></g></g></svg>