<svg width="3" height="12" viewBox="0 0 3 12" fill="none" xmlns="http://www.w3.org/2000/svg">
<path d="M1.35452 2.75878C0.995278 2.75878 0.650751 2.61344 0.39673 2.35475C0.142708 2.09606 0 1.7452 0 1.37936C0 1.01351 0.142708 0.662655 0.39673 0.403964C0.650751 0.145273 0.995278 -5.81741e-05 1.35452 -5.81741e-05C1.71376 -5.81741e-05 2.05829 0.145273 2.31231 0.403964C2.56633 0.662655 2.70904 1.01351 2.70904 1.37936C2.70904 1.7452 2.56633 2.09606 2.31231 2.35475C2.05829 2.61344 1.71376 2.75878 1.35452 2.75878ZM1.35452 6.89703C0.995278 6.89703 0.650751 6.7517 0.39673 6.493C0.142708 6.23431 0 5.88345 0 5.51761C0 5.15177 0.142708 4.80091 0.39673 4.54222C0.650751 4.28352 0.995278 4.13819 1.35452 4.13819C1.71376 4.13819 2.05829 4.28352 2.31231 4.54222C2.56633 4.80091 2.70904 5.15177 2.70904 5.51761C2.70904 5.88345 2.56633 6.23431 2.31231 6.493C2.05829 6.7517 1.71376 6.89703 1.35452 6.89703ZM1.35452 11.0353C0.995278 11.0353 0.650751 10.8899 0.39673 10.6313C0.142708 10.3726 0 10.0217 0 9.65586C0 9.29002 0.142708 8.93916 0.39673 8.68047C0.650751 8.42178 0.995278 8.27644 1.35452 8.27644C1.71376 8.27644 2.05829 8.42178 2.31231 8.68047C2.56633 8.93916 2.70904 9.29002 2.70904 9.65586C2.70904 10.0217 2.56633 10.3726 2.31231 10.6313C2.05829 10.8899 1.71376 11.0353 1.35452 11.0353Z" fill="#52667B" fill-opacity="0.5"/>
</svg>
