<svg xmlns="http://www.w3.org/2000/svg" viewBox="0 0 497.28 497.79"><defs><style>.cls-1{fill:#3a70b4;}</style></defs><g id="Layer_2" data-name="Layer 2"><g id="Layer_1-2" data-name="Layer 1"><path class="cls-1" d="M296.94,0a129,129,0,0,1,19.32,1.6c3.21.48,6.51.49,9.72,1C409.27,17.2,473.44,77.49,492.09,159.81c11.49,50.74,3.72,99-21.24,144.58-5.47,10-16.82,13.44-26.48,8.39-9.4-4.92-13.11-16.64-7.71-26.67,9.86-18.32,17.11-37.5,19.74-58.17,7.15-56.25-9.36-104.6-50.28-143.82C372.53,51.93,331.59,36.31,285.3,39.34,217.07,43.82,167.59,78.07,140.68,141,113.13,205.48,129,276.62,180.06,324.46c40.07,37.51,88.05,51,142.24,42.24,17.9-2.91,34.63-9.18,50.56-17.76,10.77-5.81,22.19-2.82,27.52,7.07,5.44,10.09,2,21.08-8.9,27-43.1,23.41-88.81,30.48-137,21.58-32.52-6-61.57-19.65-87.48-40-3.18-2.51-4.72-1.3-7,.94Q97.63,427.57,35.16,489.56C27,497.7,19.69,499.61,11,496.13a15.56,15.56,0,0,1-5.15-3.42c-7.33-7.2-7.75-18.92-1.5-27.08a34.43,34.43,0,0,1,2.94-3.37q62.7-62,125.31-124.2c2.72-2.69,2.76-4.28.46-7.31C87.69,271,75.85,204.94,101.51,134.64,127.57,63.24,180,20,254.43,3.69c4.2-.92,8.53-1.1,12.77-1.75A154.9,154.9,0,0,1,290.75,0Z"/><path class="cls-1" d="M292.14,301.39c-26.88-.25-51.35-10.19-73.58-26.12-21.79-15.61-40.12-34.79-55.76-56.53-5.21-7.25-5.77-15.17-.57-22.35C183.75,166.7,209,141,242.52,124.81c36.9-17.85,73.33-15.66,108.85,4,29.35,16.28,52.08,39.88,71.8,66.59,5.27,7.13,5.89,15,.59,22.28-22.3,30.59-48.35,57-83.4,73.06A115.54,115.54,0,0,1,292.14,301.39Zm.76-38.93A74.61,74.61,0,0,0,317.57,258c26.39-9.6,45.7-28.39,63.72-48.89,1.76-2,.83-3.12-.45-4.61-12.55-14.51-26.11-27.91-42.43-38.21-24.62-15.52-50.27-19.91-77.57-7.16-22.5,10.51-39.89,27.21-56,45.59-2.12,2.42-.7,3.76.74,5.45C216.79,223.25,229,235.25,243.18,245,258.09,255.17,274.21,262.23,292.9,262.46Z"/><path class="cls-1" d="M293.87,170.22a36.95,36.95,0,0,1,.11,73.89,37.43,37.43,0,0,1-37.07-37.2A37,37,0,0,1,293.87,170.22Z"/></g></g></svg>