<svg xmlns="http://www.w3.org/2000/svg" viewBox="0 0 498.17 498.81"><defs><style>.cls-1{fill:#3a70b4;}</style></defs><g id="Layer_2" data-name="Layer 2"><g id="Layer_1-2" data-name="Layer 1"><path class="cls-1" d="M0,451.46V45.5A49.3,49.3,0,0,1,1.63,32.94h0C5.17,19.66,13.42,10.36,25.51,4.17l.1-.06A41.43,41.43,0,0,1,44.17,0H292.08a52,52,0,0,1,20.53,4,36.38,36.38,0,0,1,10.51,6.59c15.19,14,29.53,28.87,44,43.64,9.54,9.74,13,21.65,12.93,35.08-.18,35.15-.07,70.31,0,105.46,0,1.65-.54,3.5,1.49,6a45.9,45.9,0,0,1,3.58-4.74c12.79-12.88,25.53-25.83,38.51-38.53,19.8-19.39,49-17.5,66.27,4.05a33.11,33.11,0,0,1,4.12,6.7c7.57,16,4.67,34.86-6.5,48.57a189.43,189.43,0,0,1-13.59,14.4c-29.78,29.53-59.3,59.33-89.06,88.89a15,15,0,0,0-5,11.72c.2,40.28.1,80.56.11,120.84,0,15.26-5.6,27.77-17.73,37.31a32.84,32.84,0,0,1-6.92,4.08,54.91,54.91,0,0,1-22.54,4.69H45.31A49.31,49.31,0,0,1,32,497h0c-9.21-2.61-16.55-7.89-22.62-15.21A33,33,0,0,1,5,474.68,54.64,54.64,0,0,1,0,451.46ZM350.84,354.8a35,35,0,0,1-10.17,5.71Q312,370,283.31,379.6c-6.4,2.16-12.25,1.72-17.09-3.23s-5-10.48-2.83-16.7c6.2-18.12,12.32-36.26,18.18-54.49a37,37,0,0,1,9.65-15.41c19-18.72,37.7-37.67,56.59-56.47a9,9,0,0,0,3.08-7q-.13-52.21,0-104.43c0-4-1.28-5.07-5.14-5-21.66.16-43.31.08-65,.07-12,0-17.8-5.72-17.82-17.69,0-21.32-.13-42.64.09-64,.05-4.62-1-6.31-6-6.29q-105.2.24-210.38.12c-11.88,0-17.58,5.64-17.58,17.44q0,202.86,0,405.74c0,11.48,5.81,17.36,17.16,17.36q143.67,0,287.33,0c11.32,0,17.19-5.95,17.2-17.3q0-46,0-91.94Zm8.28-51.05c1.81-.4,2.69-1.68,3.73-2.72q32-32.11,64.11-64.21c2-2,2.15-3.33.1-5.31q-7.89-7.62-15.53-15.51c-1.94-2-3.34-2-5.33,0Q373.65,248.71,341,281.3c-1.82,1.81-1.9,3.09,0,4.91,5.38,5.2,10.61,10.56,15.93,15.83A19.8,19.8,0,0,0,359.12,303.75ZM350.29,86.64c1.61-3-.06-6.15-1.71-8.9a18.41,18.41,0,0,0-2.8-3.49q-20.05-20.11-40.16-40.18c-2.44-2.44-5.24-5.3-8.61-4.71-3.08.54-4.08.54-4.95,3.92q.19,25.19,0,50.36c0,3.32,1.27,4.31,4.43,4.25,8.48-.15,16.95,0,25.43,0m147.77,99.69c-.6-5.56-3.05-10.23-8.59-12.79-5.72-2.63-11.15-1.88-15.76,2.33s-9,8.91-13.51,13.31c-1.6,1.55-2,2.78-.2,4.53q8.21,8,16.21,16.25c1.84,1.89,3.28,1.7,5-.1,4.15-4.32,8.46-8.48,12.56-12.84A15.74,15.74,0,0,0,469.69,187.54ZM338,325.12a10.22,10.22,0,0,0-1.14-1.8q-8.62-8.69-17.29-17.32a1.92,1.92,0,0,0-3.06-.06c-2.36,2.54-5.64,4.39-6.84,7.82-3,8.63-5.86,17.35-8.79,26-.72,2.13-.56,3.35,2.15,2.44,9-3,18.09-5.78,26.95-9.16C333.46,331.72,335.9,328.48,338,325.12Z"/><path class="cls-1" d="M174.89,175.13q-50.43,0-100.87,0c-9.68,0-15.62-6-15.25-15.11a13.65,13.65,0,0,1,10.8-13.29,25.48,25.48,0,0,1,5.92-.6q99.89,0,199.76,0c3.55,0,7,.32,10.07,2.28a14.68,14.68,0,0,1,6.33,16.07,13.58,13.58,0,0,1-13.38,10.65c-9.32.18-18.65.08-28,.08H174.89Z"/><path class="cls-1" d="M146.48,204.71c23.8,0,47.59,0,71.39,0,6.18,0,11.13,2.13,14.12,7.64,4.95,9.11-.8,20-11.18,21.38a31.18,31.18,0,0,1-4,.14q-70.63,0-141.29,0c-6.88,0-12.6-2-15.55-8.61-4.5-10,2.34-20.39,13.61-20.49,20.46-.18,40.94-.06,61.4-.07Z"/><path class="cls-1" d="M146,321.67c24,0,47.93,0,71.89,0,6.17,0,11.12,2.11,14.11,7.65,4.89,9-1,20-11.28,21.38a18.79,18.79,0,0,1-2.49.12q-71.89,0-143.79,0c-8.6,0-14.64-5-15.61-12.46-1.23-9.53,5.09-16.57,15.27-16.61C98.1,321.61,122.06,321.68,146,321.67Z"/><path class="cls-1" d="M146.26,292.09c-24,0-47.93,0-71.89,0-8.56,0-14.42-4.64-15.47-11.89C57.58,271,63.45,263.72,72.72,263c1-.07,2-.05,3-.05q70.4,0,140.78,0c5.63,0,10.66,1.25,14.19,5.85s4.24,9.74,1.67,15-6.88,8.14-12.71,8.2c-13.31.14-26.62.07-39.94.08Q163,292.11,146.26,292.09Z"/><path class="cls-1" d="M234.24,411c14.32,0,28.64-.08,42.95,0,5.95.05,10.62,2.64,13.34,8.1a14.39,14.39,0,0,1-.77,14.75c-2.9,4.7-7.49,6.59-12.73,6.61-29,.09-57.94.14-86.91,0a15,15,0,0,1-14.9-14.51c-.1-7.84,6.61-14.77,15.07-14.89C204.94,410.83,219.59,411,234.24,411Z"/></g></g></svg>